# xmcd
#
# Track frame offsets: 
#        150
#        10224
#        24570
#        42910
#        52682
#        66364
#        81091
#        93694
#        107704
#        119649
#        130997
#        140260
#        153987
#        168282
#        180129
#        191591
#        201553
#        212726
#        225551
#        239347
#
# Disc length: 3347 seconds
#
# Revision: 0
# Processed by: cddbd v1.5.2PL0 Copyright (c) Steve Scherf et al.
# Submitted via: ExactAudioCopy v0.99pb4
#
DISCID=100d1114
DTITLE=Charlie Pride - The Heart-Touching Magic of Charley Pride
DYEAR=1984
DGENRE=Classic Country
TTITLE0=Is Anybobody Goin' To San Antone
TTITLE1=Amazing Love
TTITLE2=Where Do I Put Her Memory
TTITLE3=Someone Loves You Honey
TTITLE4=You Win Again
TTITLE5=Please Help Me, I'm Falling
TTITLE6=Mountain Of Love
TTITLE7=Green, Green Grass of Home
TTITLE8=I'm So Lonely I Could Cry
TTITLE9=I Can't Help It (If I'm Still In Love With You)
TTITLE10=Kiss An Angel Good Morning
TTITLE11=All I Have To Offer You (Is Me)
TTITLE12=Love Put a Song In My Heart
TTITLE13=I Don't Think She's In Love Anymore
TTITLE14=Hello Darlin'
TTITLE15=Why Baby Why
TTITLE16=Help Me Make It Through the Night
TTITLE17=Blue Eyes Crying In the Rain
TTITLE18=Never Been So Loved (In All My Life)
TTITLE19=She's Just An Old Love Turned Memory
EXTD=
EXTT0=
EXTT1=
EXTT2=
EXTT3=
EXTT4=
EXTT5=
EXTT6=
EXTT7=
EXTT8=
EXTT9=
EXTT10=
EXTT11=
EXTT12=
EXTT13=
EXTT14=
EXTT15=
EXTT16=
EXTT17=
EXTT18=
EXTT19=
PLAYORDER=
